<svg xmlns="http://www.w3.org/2000/svg" xmlns:xlink="http://www.w3.org/1999/xlink" width="424" height="113" viewBox="0 0 424 113">
  <defs>
    <clipPath id="clip-path">
      <rect id="Rectangle_56" data-name="Rectangle 56" width="424" height="113" transform="translate(748 56)" fill="#fff" stroke="#707070" stroke-width="1"/>
    </clipPath>
  </defs>
  <g id="Mask_Group_3" data-name="Mask Group 3" transform="translate(-748 -56)" clip-path="url(#clip-path)">
    <g id="Lager_3" transform="translate(806.569 49.1)">
      <g id="Group_58" data-name="Group 58">
        <g id="Group_45" data-name="Group 45">
          <rect id="Rectangle_57" data-name="Rectangle 57" width="20.7" height="63.793" transform="translate(96.477 56.107)" fill="#870aa0"/>
        </g>
        <g id="Group_46" data-name="Group 46">
          <rect id="Rectangle_58" data-name="Rectangle 58" width="20.7" height="49.207" transform="translate(96.477 6.9)" fill="#fa1996"/>
        </g>
        <g id="Group_47" data-name="Group 47">
          <rect id="Rectangle_59" data-name="Rectangle 59" width="20.7" height="80.195" transform="translate(61.978 39.704)" fill="#870aa0"/>
        </g>
        <g id="Group_48" data-name="Group 48">
          <rect id="Rectangle_60" data-name="Rectangle 60" width="20.7" height="80.195" transform="translate(132.731 39.704)" fill="#870aa0"/>
        </g>
        <g id="Group_49" data-name="Group 49">
          <rect id="Rectangle_61" data-name="Rectangle 61" width="20.7" height="38.252" transform="translate(187.93 81.648)" fill="#fa1996"/>
        </g>
        <g id="Group_50" data-name="Group 50">
          <rect id="Rectangle_62" data-name="Rectangle 62" width="20.7" height="38.252" transform="translate(243.129 81.648)" fill="#fa1996"/>
        </g>
        <g id="Group_51" data-name="Group 51">
          <rect id="Rectangle_63" data-name="Rectangle 63" width="20.7" height="18.218" transform="translate(277.628 101.682)" fill="#fa1996"/>
        </g>
        <g id="Group_52" data-name="Group 52">
          <rect id="Rectangle_64" data-name="Rectangle 64" width="20.7" height="30.989" transform="translate(277.628 70.693)" fill="#ff5f0a"/>
        </g>
        <g id="Group_53" data-name="Group 53">
          <rect id="Rectangle_65" data-name="Rectangle 65" width="20.7" height="30.989" transform="translate(277.628 39.704)" fill="#fa1996"/>
        </g>
        <g id="Group_54" data-name="Group 54">
          <path id="Path_9" data-name="Path 9" d="M287.13,6.9c-7.142,0-12.952,6.113-12.952,13.679s5.81,13.679,12.952,13.679,12.952-6.113,12.952-13.679S294.272,6.9,287.13,6.9Z" fill="#fa1996"/>
        </g>
        <g id="Group_55" data-name="Group 55">
          <path id="Path_10" data-name="Path 10" d="M44.728,61.614c9.5,0,17.25,8.171,17.25,18.218S54.23,98.05,44.728,98.05s-17.25-8.171-17.25-18.218,7.687-18.218,17.25-18.218m0-21.91C23.786,39.7,6.779,57.68,6.779,79.832S23.786,119.9,44.728,119.9s37.949-17.976,37.949-40.128S65.67,39.7,44.728,39.7Z" fill="#fa1996"/>
        </g>
        <g id="Group_56" data-name="Group 56">
          <path id="Path_11" data-name="Path 11" d="M263.828,81.648h-20.7c0-11.076-7.747-20.034-17.25-20.034s-17.25,9.018-17.25,20.034h-20.7c0-23.121,17.008-41.944,37.949-41.944S263.828,58.528,263.828,81.648Z" fill="#870aa0"/>
        </g>
        <g id="Group_57" data-name="Group 57">
          <path id="Path_12" data-name="Path 12" d="M208.629,81.648h-20.7c0-11.076-7.747-20.034-17.25-20.034s-17.25,9.018-17.25,20.034h-20.7c0-23.121,17.007-41.944,37.949-41.944S208.629,58.528,208.629,81.648Z" fill="#ff5f0a"/>
        </g>
      </g>
    </g>
  </g>
</svg>
